<svg width="482" height="536" viewBox="0 0 482 536" fill="none" xmlns="http://www.w3.org/2000/svg">
<path fill-rule="evenodd" clip-rule="evenodd" d="M19 197.15C19 131.659 19 98.9129 31.9474 73.9879C42.8582 52.984 59.984 35.8582 80.9879 24.9474C105.913 12 138.659 12 204.15 12H269.85C335.341 12 368.087 12 393.012 24.9474C414.016 35.8582 431.142 52.984 442.053 73.9879C449.448 88.2252 452.619 105.014 453.979 129H461C469.284 129 476 135.716 476 144V194C476 202.284 469.284 209 461 209H455V285.832C458.532 287.375 461 290.899 461 295V389C461 393.296 458.291 396.959 454.488 398.375C453.497 428.748 450.588 448.58 442.053 465.012C431.142 486.016 414.016 503.142 393.012 514.053C368.087 527 335.341 527 269.85 527H204.15C138.659 527 105.913 527 80.9879 514.053C59.984 503.142 42.8582 486.016 31.9474 465.012C19 440.087 19 407.341 19 341.85V197.15Z" fill="#D9D9D9"/>
</svg>
